<?xml version="1.0" standalone="no"?>
<!DOCTYPE svg PUBLIC "-//W3C//DTD SVG 20010904//EN"
 "http://www.w3.org/TR/2001/REC-SVG-20010904/DTD/svg10.dtd">
<svg version="1.0" xmlns="http://www.w3.org/2000/svg"
 width="32.000000pt" height="32.000000pt" viewBox="0 0 32.000000 32.000000"
 preserveAspectRatio="xMidYMid meet">

<g transform="translate(0.000000,32.000000) scale(0.100000,-0.100000)"
fill="#000000" stroke="none">
<path d="M2 283 c2 -31 7 -39 26 -41 12 -2 22 1 22 7 0 6 -10 11 -21 11 -18 0
-21 5 -17 30 3 17 1 30 -4 30 -5 0 -8 -17 -6 -37z"/>
<path d="M90 296 c0 -16 7 -26 21 -29 15 -4 20 -11 16 -21 -7 -17 -4 -18 53
-20 l35 -1 3 -58 c2 -48 6 -58 18 -53 9 3 22 6 30 6 8 0 14 5 14 10 0 6 -9 10
-20 10 -16 0 -20 7 -20 30 0 27 3 30 30 30 29 0 30 -2 30 -44 0 -25 5 -48 10
-51 6 -4 10 17 10 54 l0 61 -40 0 c-33 0 -40 3 -40 20 0 22 10 26 27 9 18 -18
53 11 53 43 0 16 -4 28 -10 28 -5 0 -10 -4 -10 -10 0 -5 -9 -10 -20 -10 -11 0
-20 5 -20 10 0 6 -35 10 -85 10 -83 0 -85 -1 -85 -24z m130 -16 c0 -13 -7 -20
-20 -20 -23 0 -26 10 -8 28 18 18 28 15 28 -8z"/>
<path d="M0 190 c0 -5 5 -10 10 -10 6 0 10 -16 10 -35 0 -19 5 -35 10 -35 6 0
10 10 10 23 0 13 5 28 11 34 6 6 8 16 5 22 -9 14 -56 15 -56 1z"/>
</g>
</svg>
